<svg xmlns="http://www.w3.org/2000/svg">
  <path id="magnifying-glass" stroke-width="1.5" stroke="currentColor" fill="none" stroke-linecap="round" stroke-linejoin="round" d="m21 21-5.197-5.197m0 0A7.5 7.5 0 1 0 5.196 5.196a7.5 7.5 0 0 0 10.607 10.607Z" />
  <path id="bell" stroke-width="1.5" stroke="currentColor" fill="none" stroke-linecap="round" stroke-linejoin="round" d="M14.857 17.082a23.848 23.848 0 0 0 5.454-1.31A8.967 8.967 0 0 1 18 9.75V9A6 6 0 0 0 6 9v.75a8.967 8.967 0 0 1-2.312 6.022c1.733.64 3.56 1.085 5.455 1.31m5.714 0a24.255 24.255 0 0 1-5.714 0m5.714 0a3 3 0 1 1-5.714 0" />
  <path id="plus" stroke-width="1.5" stroke="currentColor" fill="none" stroke-linecap="round" stroke-linejoin="round" d="M12 4.5v15m7.5-7.5h-15" />
  <symbol id="cog" class="svg-icon">
    <path stroke-width="1.5" stroke="currentColor" fill="none" stroke-linecap="round" stroke-linejoin="round" d="M9.594 3.94c.09-.542.56-.94 1.11-.94h2.593c.55 0 1.02.398 1.11.94l.213 1.281c.063.374.313.686.645.87.074.04.147.083.22.127.325.196.72.257 1.075.124l1.217-.456a1.125 1.125 0 0 1 1.37.49l1.296 2.247a1.125 1.125 0 0 1-.26 1.431l-1.003.827c-.293.241-.438.613-.43.992a7.723 7.723 0 0 1 0 .255c-.008.378.137.75.43.991l1.004.827c.424.35.534.955.26 1.43l-1.298 2.247a1.125 1.125 0 0 1-1.369.491l-1.217-.456c-.355-.133-.75-.072-1.076.124a6.47 6.47 0 0 1-.22.128c-.331.183-.581.495-.644.869l-.213 1.281c-.09.543-.56.94-1.11.94h-2.594c-.55 0-1.019-.398-1.11-.94l-.213-1.281c-.062-.374-.312-.686-.644-.87a6.52 6.52 0 0 1-.22-.127c-.325-.196-.72-.257-1.076-.124l-1.217.456a1.125 1.125 0 0 1-1.369-.49l-1.297-2.247a1.125 1.125 0 0 1 .26-1.431l1.004-.827c.292-.24.437-.613.43-.991a6.932 6.932 0 0 1 0-.255c.007-.38-.138-.751-.43-.992l-1.004-.827a1.125 1.125 0 0 1-.26-1.43l1.297-2.247a1.125 1.125 0 0 1 1.37-.491l1.216.456c.356.133.751.072 1.076-.124.072-.044.146-.086.22-.128.332-.183.582-.495.644-.869l.214-1.28Z" />
    <path stroke-width="1.5" stroke="currentColor" fill="none" stroke-linecap="round" stroke-linejoin="round" d="M15 12a3 3 0 1 1-6 0 3 3 0 0 1 6 0Z" />
  </symbol>
  <path id="minus" stroke-width="1.5" stroke="currentColor" fill="none" stroke-linecap="round" stroke-linejoin="round" d="M5 12h14" />
  <path id="x-mark" stroke-width="1.5" stroke="currentColor" fill="none" stroke-linecap="round" stroke-linejoin="round" d="M6 18 18 6M6 6l12 12" />
  <path id="twitter" stroke-width="1.5" stroke="currentColor" fill="currentColor" stroke-linecap="round" stroke-linejoin="round" d="M22 4.5c-0.85 0.38-1.76 0.64-2.72 0.75c0.98-0.59 1.74-1.52 2.09-2.63c-0.92 0.54-1.93 0.94-3.02 1.15c-0.87-0.92-2.1-1.5-3.47-1.5c-2.62 0-4.75 2.13-4.75 4.75c0 0.37 0.04 0.73 0.12 1.08c-3.95-0.2-7.44-2.09-9.78-4.96c-0.41 0.7-0.64 1.51-0.64 2.38c0 1.65 0.84 3.1 2.11 3.95c-0.78-0.02-1.51-0.24-2.15-0.59v0.06c0 2.3 1.64 4.22 3.81 4.66c-0.4 0.11-0.82 0.17-1.25 0.17c-0.31 0-0.61-0.03-0.9-0.08c0.61 1.89 2.36 3.26 4.44 3.3c-1.63 1.27-3.68 2.03-5.91 2.03c-0.38 0-0.76-0.02-1.13-0.07c2.1 1.35 4.6 2.13 7.29 2.13c8.74 0 13.52-7.24 13.52-13.52c0-0.21-0.01-0.41-0.02-0.61c0.93-0.67 1.73-1.5 2.37-2.45z"/>
</svg>