<svg xmlns="http://www.w3.org/2000/svg" viewBox="0 0 24 24">
  <path id="magnifying-glass" stroke-width="1.5" stroke="currentColor" fill="none" stroke-linecap="round" stroke-linejoin="round" d="m21 21-5.197-5.197m0 0A7.5 7.5 0 1 0 5.196 5.196a7.5 7.5 0 0 0 10.607 10.607Z" />
  <path id="bell" stroke-width="1.5" stroke="currentColor" fill="none" stroke-linecap="round" stroke-linejoin="round" d="M14.857 17.082a23.848 23.848 0 0 0 5.454-1.31A8.967 8.967 0 0 1 18 9.75V9A6 6 0 0 0 6 9v.75a8.967 8.967 0 0 1-2.312 6.022c1.733.64 3.56 1.085 5.455 1.31m5.714 0a24.255 24.255 0 0 1-5.714 0m5.714 0a3 3 0 1 1-5.714 0" />
  <path id="plus" stroke-width="1.5" stroke="currentColor" fill="none" stroke-linecap="round" stroke-linejoin="round" d="M12 4.5v15m7.5-7.5h-15" />
  <symbol id="cog" class="svg-icon">
    <path stroke-width="1.5" stroke="currentColor" fill="none" stroke-linecap="round" stroke-linejoin="round" d="M9.594 3.94c.09-.542.56-.94 1.11-.94h2.593c.55 0 1.02.398 1.11.94l.213 1.281c.063.374.313.686.645.87.074.04.147.083.22.127.325.196.72.257 1.075.124l1.217-.456a1.125 1.125 0 0 1 1.37.49l1.296 2.247a1.125 1.125 0 0 1-.26 1.431l-1.003.827c-.293.241-.438.613-.43.992a7.723 7.723 0 0 1 0 .255c-.008.378.137.75.43.991l1.004.827c.424.35.534.955.26 1.43l-1.298 2.247a1.125 1.125 0 0 1-1.369.491l-1.217-.456c-.355-.133-.75-.072-1.076.124a6.47 6.47 0 0 1-.22.128c-.331.183-.581.495-.644.869l-.213 1.281c-.09.543-.56.94-1.11.94h-2.594c-.55 0-1.019-.398-1.11-.94l-.213-1.281c-.062-.374-.312-.686-.644-.87a6.52 6.52 0 0 1-.22-.127c-.325-.196-.72-.257-1.076-.124l-1.217.456a1.125 1.125 0 0 1-1.369-.49l-1.297-2.247a1.125 1.125 0 0 1 .26-1.431l1.004-.827c.292-.24.437-.613.43-.991a6.932 6.932 0 0 1 0-.255c.007-.38-.138-.751-.43-.992l-1.004-.827a1.125 1.125 0 0 1-.26-1.43l1.297-2.247a1.125 1.125 0 0 1 1.37-.491l1.216.456c.356.133.751.072 1.076-.124.072-.044.146-.086.22-.128.332-.183.582-.495.644-.869l.214-1.28Z" />
    <path stroke-width="1.5" stroke="currentColor" fill="none" stroke-linecap="round" stroke-linejoin="round" d="M15 12a3 3 0 1 1-6 0 3 3 0 0 1 6 0Z" />
  </symbol>
  <path id="minus" stroke-width="1.5" stroke="currentColor" fill="none" stroke-linecap="round" stroke-linejoin="round" d="M5 12h14" />
  <path id="x-mark" stroke-width="1.5" stroke="currentColor" fill="none" stroke-linecap="round" stroke-linejoin="round" d="M6 18 18 6M6 6l12 12" />
  <path id="circle" stroke-width="1.5" stroke="currentColor" fill="currentColor" stroke-linecap="round" stroke-linejoin="round" fill-rule="evenodd" d="M12 2.25c-5.385 0-9.75 4.365-9.75 9.75s4.365 9.75 9.75 9.75 9.75-4.365 9.75-9.75S17.385 2.25 12 2.25Zm3 10.5a.75.75 0 0 0 0-1.5H9a.75.75 0 0 0 0 1.5h6Z" />
  <symbol id="twitter" viewBox="0 0 24 24" fill="currentColor"> 
    <!--<path d="M22 4.5c-0.85 0.38-1.76 0.64-2.72 0.75c0.98-0.59 1.74-1.52 2.09-2.63c-0.92 0.54-1.93 0.94-3.02 1.15c-0.87-0.92-2.1-1.5-3.47-1.5c-2.62 0-4.75 2.13-4.75 4.75c0 0.37 0.04 0.73 0.12 1.08c-3.95-0.2-7.44-2.09-9.78-4.96c-0.41 0.7-0.64 1.51-0.64 2.38c0 1.65 0.84 3.1 2.11 3.95c-0.78-0.02-1.51-0.24-2.15-0.59v0.06c0 2.3 1.64 4.22 3.81 4.66c-0.4 0.11-0.82 0.17-1.25 0.17c-0.31 0-0.61-0.03-0.9-0.08c0.61 1.89 2.36 3.26 4.44 3.3c-1.63 1.27-3.68 2.03-5.91 2.03c-0.38 0-0.76-0.02-1.13-0.07c2.1 1.35 4.6 2.13 7.29 2.13c8.74 0 13.52-7.24 13.52-13.52c0-0.21-0.01-0.41-0.02-0.61c0.93-0.67 1.73-1.5 2.37-2.45z"/>-->
    <path transform="translate(1 -3) scale(1.0355 1.2745)" d="M22 4.5c-0.85 0.38-1.76 0.64-2.72 0.75c0.98-0.59 1.74-1.52 2.09-2.63c-0.92 0.54-1.93 0.94-3.02 1.15c-0.87-0.92-2.1-1.5-3.47-1.5c-2.62 0-4.75 2.13-4.75 4.75c0 0.37 0.04 0.73 0.12 1.08c-3.95-0.2-7.44-2.09-9.78-4.96c-0.41 0.7-0.64 1.51-0.64 2.38c0 1.65 0.84 3.1 2.11 3.95c-0.78-0.02-1.51-0.24-2.15-0.59v0.06c0 2.3 1.64 4.22 3.81 4.66c-0.4 0.11-0.82 0.17-1.25 0.17c-0.31 0-0.61-0.03-0.9-0.08c0.61 1.89 2.36 3.26 4.44 3.3c-1.63 1.27-3.68 2.03-5.91 2.03c-0.38 0-0.76-0.02-1.13-0.07c2.1 1.35 4.6 2.13 7.29 2.13c8.74 0 13.52-7.24 13.52-13.52c0-0.21-0.01-0.41-0.02-0.61c0.93-0.67 1.73-1.5 2.37-2.45z"></path>
  </symbol>
  <symbol id="chart" viewBox="0 0 24 24" fill="none" stroke-width="1.5" stroke="currentColor" stroke-linecap="round" stroke-linejoin="round">
    <!--<path d="M7.5 14.25v2.25m3-4.5v4.5m3-6.75v6.75m3-9v9M6 20.25h12A2.25 2.25 0 0 0 20.25 18V6A2.25 2.25 0 0 0 18 3.75H6A2.25 2.25 0 0 0 3.75 6v12A2.25 2.25 0 0 0 6 20.25Z" />-->
    <path transform="translate(-4 -4) scale(1.33239)" d="M7.5 14.25v2.25m3-4.5v4.5m3-6.75v6.75m3-9v9M6 20.25h12A2.25 2.25 0 0 0 20.25 18V6A2.25 2.25 0 0 0 18 3.75H6A2.25 2.25 0 0 0 3.75 6v12A2.25 2.25 0 0 0 6 20.25Z"></path>
  </symbol>
  <symbol id="ghcat" viewBox="0 0 24 24" fill="currentColor">
    <!--<path d="M12,2.247c-5.523,0-10,4.59-10,10.253c0,4.529,2.865,8.371,6.839,9.728c0.499,0.095,0.683-0.222,0.683-0.493c0-0.338-0.012-1.442-0.012-2.814c0-0.956,0.32-1.58,0.679-1.898c-2.227-0.254-4.567-1.121-4.567-5.059c0-1.12,0.388-2.034,1.03-2.752c-0.104-0.259-0.447-1.302,0.098-2.714c0,0,0.838-0.275,2.747,1.051c0.799-0.227,1.655-0.341,2.505-0.345c0.85,0.004,1.705,0.118,2.503,0.345c1.911-1.326,2.751-1.051,2.751-1.051c0.543,1.412,0.2,2.455,0.097,2.714c0.639,0.718,1.03,1.632,1.03,2.752c0,3.928-2.335,4.808-4.556,5.067c0.286,0.256,0.545,0.708,0.635,1.371c0.57,0.262,2.018,0.715,2.91-0.852c0,0,0.529-0.985,1.533-0.913c0,0,0.975-0.013,0.068,0.623c0,0-0.655,0.315-1.11,1.5c0,0-0.587,1.83-3.369,1.21c-0.005,0.857-0.014,1.665-0.014,1.909c0,0.271,0.184,0.588,0.683,0.493C19.138,20.871,22,17.027,22,12.5C22,6.837,17.522,2.247,12,2.247"/>-->
    <path transform="translate(-2 -3) scale(1.1995 1.1895)" d="M12,2.247c-5.523,0-10,4.59-10,10.253c0,4.529,2.865,8.371,6.839,9.728c0.499,0.095,0.683-0.222,0.683-0.493c0-0.338-0.012-1.442-0.012-2.814c0-0.956,0.32-1.58,0.679-1.898c-2.227-0.254-4.567-1.121-4.567-5.059c0-1.12,0.388-2.034,1.03-2.752c-0.104-0.259-0.447-1.302,0.098-2.714c0,0,0.838-0.275,2.747,1.051c0.799-0.227,1.655-0.341,2.505-0.345c0.85,0.004,1.705,0.118,2.503,0.345c1.911-1.326,2.751-1.051,2.751-1.051c0.543,1.412,0.2,2.455,0.097,2.714c0.639,0.718,1.03,1.632,1.03,2.752c0,3.928-2.335,4.808-4.556,5.067c0.286,0.256,0.545,0.708,0.635,1.371c0.57,0.262,2.018,0.715,2.91-0.852c0,0,0.529-0.985,1.533-0.913c0,0,0.975-0.013,0.068,0.623c0,0-0.655,0.315-1.11,1.5c0,0-0.587,1.83-3.369,1.21c-0.005,0.857-0.014,1.665-0.014,1.909c0,0.271,0.184,0.588,0.683,0.493C19.138,20.871,22,17.027,22,12.5C22,6.837,17.522,2.247,12,2.247"></path>
  </symbol>
  <symbol id="gpstore" viewBox="0 0 24 24" fill="currentColor"> 
    <!--<path d="m12.954 11.616 2.957-2.957L6.36 3.291c-.633-.342-1.226-.39-1.746-.016l8.34 8.341zm3.461 3.462 3.074-1.729c.6-.336.929-.812.929-1.34 0-.527-.329-1.004-.928-1.34l-2.783-1.563-3.133 3.132 2.841 2.84zM4.1 4.002c-.064.197-.1.417-.1.658v14.705c0 .381.084.709.236.97l8.097-8.098L4.1 4.002zm8.854 8.855L4.902 20.91c.154.059.32.09.495.09.312 0 .637-.092.968-.276l9.255-5.197-2.666-2.67z" />-->
    <path transform="translate(-5 -3) scale(1.45975 1.33275)" d="m12.954 11.616 2.957-2.957L6.36 3.291c-.633-.342-1.226-.39-1.746-.016l8.34 8.341zm3.461 3.462 3.074-1.729c.6-.336.929-.812.929-1.34 0-.527-.329-1.004-.928-1.34l-2.783-1.563-3.133 3.132 2.841 2.84zM4.1 4.002c-.064.197-.1.417-.1.658v14.705c0 .381.084.709.236.97l8.097-8.098L4.1 4.002zm8.854 8.855L4.902 20.91c.154.059.32.09.495.09.312 0 .637-.092.968-.276l9.255-5.197-2.666-2.67z"></path>
  </symbol>
</svg>